HIERARCHY
ROOT Pelvis
{
	OFFSET 0.000000 0.000000 0.000000
	CHANNELS 6 Xposition Yposition Zposition Xrotation Yrotation Zrotation
	JOINT LeftUpLeg_virtual
	{
		OFFSET 0.000000 0.000000 0.000000
		CHANNELS 3 Xrotation Yrotation Zrotation
		JOINT LeftUpLeg
		{
			OFFSET 8.479700 -4.795502 -0.379100
			CHANNELS 3 Xrotation Yrotation Zrotation
			JOINT LeftLeg
			{
				OFFSET 0.024144 -32.555107 0.112900
				CHANNELS 3 Xrotation Yrotation Zrotation
				JOINT LeftFoot
				{
					OFFSET -0.024144 -32.638630 -3.012600
					CHANNELS 3 Xrotation Yrotation Zrotation
					JOINT LeftToeBase
					{
						OFFSET 0.970200 -13.225400 11.864200
						CHANNELS 3 Xrotation Yrotation Zrotation
						End Site
						{
							OFFSET 0 0 0
						}
					}
				}
			}
		}
	}
	JOINT RightUpLeg_virtual
	{
		OFFSET 0.000000 0.000000 0.000000
		CHANNELS 3 Xrotation Yrotation Zrotation
		JOINT RightUpLeg
		{
			OFFSET -8.479700 -4.795502 -0.379100
			CHANNELS 3 Xrotation Yrotation Zrotation
			JOINT RightLeg
			{
				OFFSET -0.023144 -32.555092 0.112900
				CHANNELS 3 Xrotation Yrotation Zrotation
				JOINT RightFoot
				{
					OFFSET 0.023144 -32.638641 -3.012700
					CHANNELS 3 Xrotation Yrotation Zrotation
					JOINT RightToeBase
					{
						OFFSET -0.970200 -13.225400 11.864200
						CHANNELS 3 Xrotation Yrotation Zrotation
						End Site
						{
							OFFSET 0 0 0
						}
					}
				}
			}
		}
	}
	JOINT Hips_virtual
	{
		OFFSET 0.000000 0.000000 0.000000
		CHANNELS 3 Xrotation Yrotation Zrotation
		JOINT Hips
		{
			OFFSET -0.000000 -0.000000 -0.000000
			CHANNELS 3 Xrotation Yrotation Zrotation
			JOINT Spine
			{
				OFFSET 0.000000 7.722000 1.166200
				CHANNELS 3 Xrotation Yrotation Zrotation
				JOINT Spine1
				{
					OFFSET 0.000000 12.024101 0.248800
					CHANNELS 3 Xrotation Yrotation Zrotation
					JOINT Spine2
					{
						OFFSET 0.000000 11.502998 -0.491200
						CHANNELS 3 Xrotation Yrotation Zrotation
						JOINT Neck_virtual
						{
							OFFSET 0.000000 0.000000 0.000000
							CHANNELS 3 Xrotation Yrotation Zrotation
							JOINT Neck
							{
								OFFSET 0.000000 18.430702 -3.123100
								CHANNELS 3 Xrotation Yrotation Zrotation
								JOINT Head
								{
									OFFSET 0.000000 9.051102 1.034000
									CHANNELS 3 Xrotation Yrotation Zrotation
									End Site
									{
										OFFSET 0 0 0
									}
								}
							}
						}
						JOINT LeftShoulder_virtual
						{
							OFFSET 0.000000 0.000000 0.000000
							CHANNELS 3 Xrotation Yrotation Zrotation
							JOINT LeftShoulder
							{
								OFFSET 6.197800 13.665199 -4.064700
								CHANNELS 3 Xrotation Yrotation Zrotation
								JOINT LeftArm
								{
									OFFSET 7.778100 -0.187103 -1.709300
									CHANNELS 3 Xrotation Yrotation Zrotation
									JOINT LeftForeArm
									{
										OFFSET 22.049376 0.000000 0.000000
										CHANNELS 3 Xrotation Yrotation Zrotation
										JOINT LeftHand
										{
											OFFSET 23.009392 0.000000 0.000000
											CHANNELS 3 Xrotation Yrotation Zrotation
											End Site
											{
												OFFSET 0 0 0
											}
										}
									}
								}
							}
						}
						JOINT RightShoulder_virtual
						{
							OFFSET 0.000000 0.000000 0.000000
							CHANNELS 3 Xrotation Yrotation Zrotation
							JOINT RightShoulder
							{
								OFFSET -6.197800 13.665199 -4.064700
								CHANNELS 3 Xrotation Yrotation Zrotation
								JOINT RightArm
								{
									OFFSET -7.778100 -0.187103 -1.709300
									CHANNELS 3 Xrotation Yrotation Zrotation
									JOINT RightForeArm
									{
										OFFSET -22.049376 0.000000 0.000000
										CHANNELS 3 Xrotation Yrotation Zrotation
										JOINT RightHand
										{
											OFFSET -23.009392 0.000000 0.000000
											CHANNELS 3 Xrotation Yrotation Zrotation
											End Site
											{
												OFFSET 0 0 0
											}
										}
									}
								}
							}
						}
					}
				}
			}
		}
	}
}
MOTION
Frames: 12
Frame Time: 0.03333333
-2.704854 80.549438 -6.280060 0.000000 0.000000 0.000000 -9.384320 -0.928738 3.380700 -7.326389 8.728616 -4.102113 24.510511 -0.287781 -0.253748 -8.494759 3.811524 3.328262 0.000000 0.000000 0.000000 -9.384320 -0.928738 3.380700 -12.907203 -13.652991 -16.206535 29.392869 0.465721 0.309419 -6.967317 -14.397759 4.322095 0.000000 0.000000 0.000000 -9.384320 -0.928738 3.380700 0.000000 0.000000 0.000000 7.161712 1.540857 -4.367046 14.244013 3.269502 -3.077380 0.000000 0.000000 0.000000 14.269161 3.169303 -3.056459 34.427070 0.786429 -4.647344 0.000000 0.000000 0.000000 14.269161 3.169303 -3.056459 -1.697377 -21.196980 -25.775466 -1.040196 -44.501790 -31.977894 4.422136 -24.531576 1.305856 0.000000 0.000000 0.000000 14.269161 3.169303 -3.056459 -1.956282 23.252503 25.557181 -0.642662 20.673893 37.850122 28.848025 40.014393 -13.261174 0.000000 0.000000 0.000000 
-2.371382 80.701210 -6.172993 0.000000 0.000000 0.000000 -9.892901 -1.231818 3.581409 -5.824831 9.170874 -4.670301 23.095877 -0.267677 -0.245239 -8.017920 3.649150 3.606246 0.000000 0.000000 0.000000 -9.892901 -1.231818 3.581409 -11.980362 -13.624754 -16.641280 28.434120 0.450797 0.304849 -6.416365 -14.104139 4.640717 0.000000 0.000000 0.000000 -9.892901 -1.231818 3.581409 0.000000 0.000000 0.000000 6.794629 1.601117 -4.504605 13.499547 3.300435 -3.157294 0.000000 0.000000 0.000000 13.525421 3.199131 -3.135813 33.353426 1.110182 -4.334505 0.000000 0.000000 0.000000 13.525421 3.199131 -3.135813 -1.205556 -20.666494 -24.364070 1.602676 -41.933595 -31.598210 4.490919 -26.563565 0.875690 0.000000 0.000000 0.000000 13.525421 3.199131 -3.135813 -1.348471 22.309539 23.910457 2.405183 20.579671 39.044834 30.735045 42.386119 -15.654478 0.000000 0.000000 0.000000 
-2.043798 80.778534 -6.106852 0.000000 0.000000 0.000000 -10.186750 -1.440488 3.765622 -4.854151 9.558851 -5.188982 22.170680 -0.255351 -0.239102 -7.717656 3.471491 3.889967 0.000000 0.000000 0.000000 -10.186750 -1.440488 3.765622 -11.490227 -13.564844 -17.096076 27.850305 0.446853 0.302362 -6.010038 -13.889687 4.979377 0.000000 0.000000 0.000000 -10.186750 -1.440488 3.765622 0.000000 0.000000 0.000000 6.440722 1.614872 -4.631524 12.785435 3.259337 -3.237265 0.000000 0.000000 0.000000 12.811445 3.157068 -3.215351 32.190989 1.385667 -4.182467 0.000000 0.000000 0.000000 12.811445 3.157068 -3.215351 -0.606959 -19.983604 -22.751681 3.591674 -39.451135 -31.646923 5.236535 -28.036373 0.947460 0.000000 0.000000 0.000000 12.811445 3.157068 -3.215351 -0.713642 21.402172 22.136611 4.746090 20.510862 40.324870 31.595670 44.303646 -17.134769 0.000000 0.000000 0.000000 
-1.735892 80.799004 -6.051016 0.000000 0.000000 0.000000 -10.279033 -1.601120 3.934604 -4.332955 9.925988 -5.643411 21.667221 -0.246113 -0.235494 -7.593354 3.293562 4.163486 0.000000 0.000000 0.000000 -10.279033 -1.601120 3.934604 -11.382785 -13.443201 -17.549374 27.635073 0.439143 0.300827 -5.781138 -13.710003 5.239442 0.000000 0.000000 0.000000 -10.279033 -1.601120 3.934604 0.000000 0.000000 0.000000 6.094488 1.619314 -4.755792 12.086296 3.177757 -3.317953 0.000000 0.000000 0.000000 12.112669 3.083688 -3.298395 30.904837 1.645484 -3.990194 0.000000 0.000000 0.000000 12.112669 3.083688 -3.298395 0.051153 -19.230210 -20.982109 4.852672 -36.960500 -32.152361 6.739173 -28.723862 1.369270 0.000000 0.000000 0.000000 12.112669 3.083688 -3.298395 -0.076869 20.530189 20.303509 6.411388 20.396579 41.725178 31.669361 45.382406 -17.619796 0.000000 0.000000 0.000000 
-1.459543 80.782936 -5.977951 0.000000 0.000000 0.000000 -10.222864 -1.762616 4.100764 -4.104409 10.285520 -6.046410 21.451148 -0.241121 -0.233817 -7.612041 3.139850 4.410844 0.000000 0.000000 0.000000 -10.222864 -1.762616 4.100764 -11.521437 -13.248468 -17.985872 27.656669 0.435826 0.300567 -5.680986 -13.582525 5.486162 0.000000 0.000000 0.000000 -10.222864 -1.762616 4.100764 -0.000001 0.000000 0.000000 5.746432 1.607200 -4.890140 11.386201 3.091535 -3.410622 0.000000 0.000000 0.000000 11.412662 3.001242 -3.392075 29.409439 1.908746 -3.558440 0.000000 0.000000 0.000000 11.412662 3.001242 -3.392075 0.749362 -18.438161 -19.040177 5.216741 -34.576228 -33.163680 8.558914 -28.595862 1.875521 0.000000 0.000000 0.000000 11.412662 3.001242 -3.392075 0.530490 19.695709 18.487714 7.345196 20.182936 43.228643 30.746380 45.758852 -16.939865 0.000000 0.000000 0.000000 
-1.221808 80.760643 -5.901949 0.000000 0.000000 0.000000 -10.113884 -1.886996 4.234103 -4.001639 10.578384 -6.377974 21.341252 -0.239555 -0.232979 -7.672097 3.013157 4.622400 0.000000 0.000000 0.000000 -10.113884 -1.886996 4.234103 -11.695966 -13.095027 -18.352100 27.686641 0.441074 0.301172 -5.610978 -13.476252 5.745898 0.000000 0.000000 0.000000 -10.113884 -1.886996 4.234103 0.000001 0.000000 0.000000 5.408855 1.588650 -5.016349 10.707921 3.001653 -3.485507 0.000000 0.000000 0.000000 10.734435 2.915114 -3.467963 27.895261 2.104590 -3.063928 0.000000 0.000000 0.000000 10.734435 2.915114 -3.467963 1.434093 -17.670096 -17.056528 5.145488 -32.111690 -34.387796 10.769983 -28.265326 2.445288 0.000000 0.000000 0.000000 10.734435 2.915114 -3.467963 1.094254 18.911718 16.755142 7.613254 19.725257 44.846073 30.069672 45.972111 -16.293046 0.000000 0.000000 0.000000 
-1.037377 80.751732 -5.830330 0.000000 0.000000 0.000000 -9.956537 -1.933730 4.305816 -3.995858 10.745471 -6.606176 21.240913 -0.237862 -0.232194 -7.711524 2.926650 4.783689 0.000000 0.000000 0.000000 -9.956537 -1.933730 4.305816 -11.867873 -13.080920 -18.609392 27.649975 0.438937 0.300841 -5.547793 -13.343417 5.911022 0.000000 0.000000 0.000000 -9.956537 -1.933730 4.305816 0.000001 0.000000 0.000000 5.089864 1.570493 -5.122396 10.067129 2.918936 -3.517001 0.000000 0.000000 0.000000 10.093829 2.834276 -3.502933 26.540245 2.174794 -2.626152 0.000000 0.000000 0.000000 10.093829 2.834276 -3.502933 2.052612 -17.010431 -15.115711 4.394836 -29.424223 -35.939745 13.275478 -27.418703 2.818984 0.000000 0.000000 0.000000 10.093829 2.834276 -3.502933 1.588005 18.191490 15.183949 7.337285 18.882825 46.547695 29.885527 45.511582 -15.683463 0.000000 0.000000 0.000000 
-0.895298 80.749069 -5.756487 0.000000 0.000000 0.000000 -9.803061 -1.944673 4.328194 -4.026622 10.850147 -6.746133 21.178214 -0.236111 -0.231679 -7.760055 2.857842 4.904270 0.000000 0.000000 0.000000 -9.803061 -1.944673 4.328194 -11.995452 -13.141881 -18.791428 27.542043 0.440866 0.300585 -5.460477 -13.215024 6.062999 0.000000 0.000000 0.000000 -9.803061 -1.944673 4.328194 0.000000 0.000000 0.000000 4.792873 1.553677 -5.201345 9.470097 2.843625 -3.500504 0.000000 0.000000 0.000000 9.496679 2.764192 -3.484832 25.306209 2.182156 -2.251185 0.000000 0.000000 0.000000 9.496679 2.764192 -3.484832 2.593125 -16.440866 -13.309863 2.934867 -26.504172 -37.776123 15.934995 -26.143973 2.974186 0.000000 0.000000 0.000000 9.496679 2.764192 -3.484832 2.014493 17.544534 13.805269 6.688023 17.694891 48.237753 29.938696 44.566131 -15.018259 0.000000 0.000000 0.000000 
-0.776227 80.758690 -5.680077 0.000000 0.000000 0.000000 -9.719982 -1.944823 4.314592 -3.973439 10.914833 -6.834083 21.079145 -0.233516 -0.230860 -7.796068 2.786013 4.997282 0.000000 0.000000 0.000000 -9.719982 -1.944823 4.314592 -11.996235 -13.266253 -18.910282 27.365742 0.439865 0.299790 -5.369609 -13.081074 6.172181 0.000000 0.000000 0.000000 -9.719982 -1.944823 4.314592 -0.000001 0.000000 0.000000 4.529045 1.535507 -5.238982 8.940043 2.766986 -3.444867 0.000000 0.000000 0.000000 8.966088 2.694093 -3.423640 24.246152 2.179897 -1.999541 0.000000 0.000000 0.000000 8.966088 2.694093 -3.423640 3.018106 -15.993904 -11.766266 1.107013 -23.251101 -39.670989 18.690884 -24.669055 2.894066 0.000000 0.000000 0.000000 8.966088 2.694093 -3.423640 2.360573 16.990468 12.690846 5.730811 16.108801 49.842496 31.034809 43.348509 -15.037327 0.000000 0.000000 0.000000 
-0.719910 80.780685 -5.589607 0.000000 0.000000 0.000000 -9.665369 -1.954466 4.290397 -3.858388 10.987858 -6.861350 20.925372 -0.232091 -0.229762 -7.803471 2.724626 5.035736 0.000000 0.000000 0.000000 -9.665369 -1.954466 4.290397 -11.912344 -13.375176 -18.941520 27.161922 0.437056 0.298742 -5.312267 -12.966867 6.241369 0.000000 0.000000 0.000000 -9.665369 -1.954466 4.290397 0.000000 0.000000 0.000000 4.283781 1.532886 -5.244648 8.446680 2.706684 -3.378603 0.000000 0.000000 0.000000 8.472753 2.634554 -3.364657 23.256145 2.152000 -1.806245 0.000000 0.000000 0.000000 8.472753 2.634554 -3.364657 3.355885 -15.615675 -10.461814 -1.058382 -19.744796 -41.581143 21.342936 -22.951174 2.567400 0.000000 0.000000 0.000000 8.472753 2.634554 -3.364657 2.645711 16.515078 11.796820 4.550616 14.261698 51.339872 32.682817 41.841934 -15.349740 0.000000 0.000000 0.000000 
-0.720204 80.810898 -5.472399 0.000000 0.000000 0.000000 -9.615376 -2.055568 4.256020 -3.692431 11.135474 -6.825205 20.744005 -0.231845 -0.228615 -7.822743 2.661989 5.017478 0.000000 0.000000 0.000000 -9.615376 -2.055568 4.256020 -11.773821 -13.375742 -18.887718 26.954177 0.436020 0.297814 -5.285340 -12.899709 6.281035 0.000000 0.000000 0.000000 -9.615376 -2.055568 4.256020 -0.000001 0.000000 0.000000 4.040597 1.553669 -5.226863 7.956429 2.696352 -3.295210 0.000000 0.000000 0.000000 7.982701 2.626950 -3.286049 22.247161 2.086610 -1.621949 0.000000 0.000000 0.000000 7.982701 2.626950 -3.286049 3.611496 -15.268418 -9.447288 -3.511415 -16.022236 -43.458144 23.746816 -21.007941 2.013200 0.000000 0.000000 0.000000 7.982701 2.626950 -3.286049 2.879078 16.117238 11.129889 3.229261 12.241836 52.689070 34.513666 40.176173 -15.740699 0.000000 0.000000 0.000000 
-0.722209 80.848221 -5.331680 0.000000 0.000000 0.000000 -9.573509 -2.221800 4.218834 -3.456233 11.344904 -6.782137 20.513677 -0.226696 -0.226682 -7.857637 2.559202 4.986077 0.000000 0.000000 0.000000 -9.573509 -2.221800 4.218834 -11.592233 -13.327044 -18.801668 26.740054 0.432534 0.296614 -5.278596 -12.860392 6.291379 0.000000 0.000000 0.000000 -9.573509 -2.221800 4.218834 -0.000001 -0.000000 0.000001 3.812324 1.575272 -5.193716 7.497057 2.702012 -3.211287 0.000000 0.000000 0.000000 7.523180 2.637802 -3.199101 21.220185 2.001555 -1.462107 0.000000 0.000000 0.000000 7.523180 2.637802 -3.199101 3.815184 -14.934805 -8.640228 -6.097114 -12.176749 -45.226135 25.763859 -18.939105 1.259812 0.000000 0.000000 0.000000 7.523180 2.637802 -3.199101 3.077880 15.773291 10.617766 1.805634 10.161667 53.931771 36.233395 38.396738 -15.976890 0.000000 0.000000 0.000000 
